<svg width="100%" height="100%" viewBox="0 0 24 24" fill="none" xmlns="http://www.w3.org/2000/svg">
  <ellipse cx="12" cy="16" rx="8" ry="4" fill="#ff6b6b"/>
  <ellipse cx="12" cy="14" rx="6" ry="3" fill="#ff5252"/>
  <circle cx="9" cy="12" r="1.5" fill="#fff"/>
  <circle cx="15" cy="12" r="1.5" fill="#fff"/>
  <circle cx="9" cy="12" r="0.5" fill="#000"/>
  <circle cx="15" cy="12" r="0.5" fill="#000"/>
  <ellipse cx="12" cy="15" rx="1" ry="0.5" fill="#000"/>
  <path d="M8 8C8 6.9 8.9 6 10 6H14C15.1 6 16 6.9 16 8V10C16 11.1 15.1 12 14 12H10C8.9 12 8 11.1 8 10V8Z" fill="#4caf50"/>
  <path d="M6 6L8 8L6 10" stroke="#4caf50" stroke-width="1" fill="none"/>
  <path d="M18 6L16 8L18 10" stroke="#4caf50" stroke-width="1" fill="none"/>
  <path d="M12 4L12 6" stroke="#4caf50" stroke-width="1"/>
</svg>
